<svg width="571" height="143" viewBox="0 0 571 143" fill="none" xmlns="http://www.w3.org/2000/svg">
<g clip-path="url(#clip0)">
<path d="M261.416 124.403L259.78 130.51L253.801 130.637C252.014 127.322 251 123.53 251 119.5C251 115.603 251.948 111.928 253.628 108.693L258.952 109.668L261.284 114.96C260.796 116.383 260.53 117.91 260.53 119.5C260.53 121.225 260.843 122.878 261.416 124.403Z" fill="#C9CCCE"/>
<path d="M297.589 115.11C297.859 116.531 298 118 298 119.5C298 121.182 297.823 122.824 297.486 124.407C296.342 129.794 293.353 134.497 289.212 137.826L289.211 137.825L282.506 137.483L281.557 131.559C284.304 129.947 286.452 127.425 287.583 124.407H275.017V115.11H297.589Z" fill="#C9CCCE"/>
<path d="M289.211 137.825L289.212 137.826C285.185 141.063 280.069 143 274.5 143C265.551 143 257.77 137.998 253.801 130.637L261.416 124.403C263.401 129.699 268.51 133.47 274.5 133.47C277.075 133.47 279.487 132.774 281.557 131.559L289.211 137.825Z" fill="#C9CCCE"/>
<path d="M289.5 101.41L281.887 107.643C279.745 106.304 277.213 105.53 274.5 105.53C268.375 105.53 263.17 109.474 261.284 114.96L253.629 108.693C257.54 101.152 265.418 95.9999 274.5 95.9999C280.202 95.9999 285.43 98.031 289.5 101.41Z" fill="#C9CCCE"/>
</g>
<g clip-path="url(#clip1)">
<path d="M570.976 30.0442C570.931 29.3393 570.834 28.6291 570.674 27.9409C570.23 26.0318 569.465 24.2532 568.47 22.5662C567.372 20.7097 566.086 18.9976 564.6 17.4384C563.826 16.628 563.02 15.8456 562.221 15.0575C561.988 14.8301 561.744 14.6107 561.489 14.4109C560.394 13.5479 559.333 12.638 558.179 11.8636C556.206 10.5344 554.226 9.1943 552.15 8.03997C550.193 6.95224 548.141 6.01164 546.065 5.16798C543.969 4.316 541.807 3.61411 539.645 2.94256C538.248 2.50972 536.803 2.21543 535.37 1.91873C534.217 1.68002 533.055 1.49153 531.888 1.34707C530.604 1.18623 529.31 1.0501 528.015 1.01412C526.604 0.972496 525.191 1.03076 523.779 1.09172C523.391 1.10836 523.003 1.12769 522.615 1.16099C522.141 1.20261 521.67 1.26088 521.207 1.35244C519.771 1.63545 518.343 1.97673 516.932 2.36795C516.497 2.49012 515.153 2.91732 514.484 4.14388C514.34 4.40756 514.124 4.88766 514.027 5.44804C513.852 6.4665 514.545 7.44603 515.568 7.57921C515.577 7.57921 515.582 7.57921 515.588 7.5819C516.43 7.68178 517.284 7.72072 518.135 7.74569C518.426 7.75401 518.748 7.70138 519.006 7.57089C519.222 7.46268 519.433 7.22693 519.507 6.99923C519.543 6.88833 519.297 6.60801 519.122 6.51913C518.634 6.28042 518.088 6.15852 517.581 5.96412C517.425 5.90585 517.265 5.87524 517.101 5.83926C517.029 5.82261 516.979 5.76166 516.974 5.68675V5.67842C516.974 5.62015 517.004 5.56457 517.057 5.53423C517.198 5.45368 517.337 5.37339 517.487 5.34842C518.64 5.15697 519.79 4.89893 520.949 4.77112C521.234 4.73783 521.52 4.71286 521.805 4.69889C523.94 4.59901 526.086 4.58505 528.215 4.91531C529.429 5.10408 530.665 5.17067 531.857 5.4424C534.067 5.94747 536.273 6.48584 538.444 7.14047C540.143 7.65386 541.809 8.28378 543.425 9.01897C545.715 10.0624 547.997 11.1445 550.176 12.3987C552.08 13.4948 553.879 14.7906 555.656 16.0948C556.934 17.0327 558.135 18.0871 559.302 19.1665C560.086 19.8907 560.754 20.7454 561.461 21.5528C562.747 23.0234 563.757 24.6689 564.483 26.4808C565.248 28.3872 565.55 30.36 565.131 32.3883C564.685 34.5471 563.535 36.2951 561.819 37.6549C560.474 38.7176 558.969 39.528 557.336 40.0384C555.928 40.4796 554.487 40.8322 553.039 41.1289C551.867 41.3702 550.669 41.5727 549.477 41.6116C548.005 41.6616 546.519 41.5923 545.053 41.4535C543.589 41.3147 542.145 41.0096 540.687 40.8209C540.329 40.7736 540.293 40.6321 540.299 40.3464C540.335 38.4733 540.36 36.6004 540.384 34.7302C540.415 32.5521 540.44 30.3736 540.47 28.1955C540.473 28.1179 540.498 28.04 540.515 27.9374C541.26 27.9984 541.984 28.0567 542.71 28.1206C543.692 28.2011 544.684 28.2315 545.66 28.3843C547.148 28.6146 548.634 28.8893 550.106 29.2196C551.201 29.4666 552.296 29.7716 553.228 30.4572C553.94 30.9816 553.829 31.4727 553.242 31.9471C553.023 32.1219 552.757 32.2385 552.504 32.369C552.069 32.591 551.614 32.7795 551.196 33.0295C550.686 33.3318 550.674 33.6761 551.187 33.9368C552.604 34.6583 554.018 35.0884 555.567 34.1809C558.123 32.6853 558.772 29.5136 556.612 27.2938C555.493 26.1451 554.126 25.404 552.635 24.8576C551.043 24.2723 549.383 24.0056 547.731 23.6783C545.596 23.2594 543.45 23.0261 541.277 23.0291C541.158 23.0291 541.036 23.0151 540.925 23.0097C540.883 22.3355 540.839 21.6889 540.803 21.045C540.77 20.3958 540.775 19.7465 540.711 19.0999C540.626 18.1897 540.512 17.2797 540.379 16.3751C540.218 15.2874 539.547 14.4603 538.882 13.6529C538.402 13.0729 537.759 13.037 537.382 13.875C537.288 14.0858 537.185 14.2968 537.135 14.5189C536.847 15.7481 536.528 16.9747 536.312 18.2149C536.11 19.3859 536.021 20.5762 535.882 21.7585C535.827 22.2329 535.785 22.7103 535.708 23.1818C535.691 23.2791 535.564 23.4176 535.469 23.4372C534.549 23.6176 533.62 23.7618 532.7 23.945C530.063 24.4777 527.519 25.288 525.135 26.5423C524.167 27.05 523.236 27.6273 522.573 28.5456C521.783 29.636 521.603 30.7933 522.21 32.0086C522.883 33.3544 523.879 34.4754 524.882 35.5771C525.506 36.2597 526.174 36.8979 526.878 37.4972C527.921 38.3825 528.963 39.2871 530.097 40.0446C531.555 41.0158 533.105 41.8512 534.604 42.7555C534.729 42.8304 534.851 43.0079 534.873 43.1524C535.006 43.9737 535.075 44.8061 535.228 45.6219C535.361 46.3267 535.638 46.9926 536.198 47.47C536.966 48.1222 537.864 48.1026 538.746 47.7863C539.281 47.5949 539.885 47.4034 540.018 46.7125C540.101 46.2824 540.201 45.8496 540.204 45.4194C540.206 45.0142 540.331 44.9559 540.686 45.0588C542.879 45.697 545.13 46.0327 547.397 46.2104C548.576 46.3047 549.765 46.2271 550.949 46.2298C552.698 46.2354 554.414 45.9884 556.124 45.6498C558.306 45.2169 560.407 44.5398 562.412 43.5825C563.82 42.9083 565.117 42.0646 566.306 41.0381C567.474 40.0309 568.46 38.882 569.189 37.5362C570.449 35.2055 571.142 32.7194 570.976 30.0442ZM535.392 31.1209C535.384 31.2458 535.389 31.3706 535.384 31.4955C535.328 32.7081 535.287 33.9207 535.212 35.1333C535.151 36.1321 535.054 37.1313 534.965 38.1301C534.937 38.4548 534.887 38.7823 534.846 39.1346C532.489 38.205 530.275 37.0867 528.234 35.6357C526.632 34.5007 525.174 33.2078 523.921 31.6955C523.308 30.9601 523.508 30.2748 524.306 29.9389C525.376 29.4868 526.504 29.1565 527.635 28.8901C528.797 28.6154 529.992 28.46 531.178 28.2991C531.91 28.1966 532.653 28.1743 533.393 28.1216C534.1 28.069 534.807 28.0191 535.558 27.9635C535.503 29.0343 535.445 30.0775 535.392 31.1209Z" fill="#C9CCCE"/>
</g>
<g clip-path="url(#clip2)">
<path fill-rule="evenodd" clip-rule="evenodd" d="M58.2294 5.96916C58.2294 5.39206 58.6783 5.00006 59.262 5.00006C59.8456 5.00006 60.2946 5.39206 60.2946 5.96916C60.2946 6.54626 59.8344 6.93826 59.262 6.93826C58.6896 6.93826 58.2294 6.54626 58.2294 5.96916ZM58.5437 5.96916C58.5437 6.36116 58.8467 6.65515 59.262 6.65515C59.6773 6.65515 59.9803 6.36116 59.9803 5.96916C59.9803 5.57717 59.6773 5.27228 59.262 5.27228C58.8467 5.27228 58.5437 5.57717 58.5437 5.96916ZM17.2623 24.2623H22.3018L29.732 5.05451H25.0517L21.7182 13.6675L22.2906 5.05451H17.3184L9.88824 24.2623H14.5686L17.8347 15.769L17.2623 24.2623ZM11.2014 28.6177C11.2014 28.0406 11.6504 27.6486 12.234 27.6486C12.8176 27.6486 13.2666 28.0406 13.2666 28.6177C13.2666 29.1948 12.8064 29.5868 12.234 29.5868C11.6616 29.5868 11.2014 29.1948 11.2014 28.6177ZM11.5157 28.6177C11.5157 29.0097 11.8187 29.3037 12.234 29.3037C12.6493 29.3037 12.9523 29.0097 12.9523 28.6177C12.9523 28.2257 12.6493 27.9209 12.234 27.9209C11.8187 27.9209 11.5157 28.2257 11.5157 28.6177ZM22.9079 24.2623L30.3381 5.05451H35.0184L27.5882 24.2623H22.9079ZM2.09883 39.5609C-3.35597 34.9985 2.81715 25.0898 9.34944 17.6418C3.71506 28.5851 11.5044 32.6357 18.351 30.7737C18.351 30.7737 30.4475 27.5911 43.2041 24.236L36.4551 24.2514L36.2419 16.2264L33.0992 24.2514H28.4188L35.7817 5.05451H40.5182L38.2509 10.8147L43.1558 5.05451H48.0157H48.0606H57.4325L56.1755 8.2558H51.439L49.9013 12.2955H54.4021L53.0215 15.8779H48.5208L46.725 20.5274H52.1798L51.6256 22.0213C62.7407 19.0984 72.3796 16.565 72.4837 16.5421C73.0898 16.4005 73.1796 16.6945 72.6969 16.9232C72.6969 16.9232 22.9752 37.8732 18.4744 39.6154L18.3866 39.6496C13.8881 41.4021 7.33982 43.9531 2.09883 39.5609ZM12.4141 28.6831C12.5601 28.6723 12.6725 28.6069 12.6725 28.4109C12.6725 28.1605 12.504 28.0952 12.2231 28.0952H11.8187V29.1405H12.0883V28.694H12.1333L12.3804 29.1405H12.6949L12.4141 28.6831ZM12.2344 28.5198H12.0771V28.2803H12.2119C12.2905 28.2803 12.3804 28.2912 12.3804 28.3892C12.3804 28.498 12.3355 28.5198 12.2344 28.5198ZM59.4421 6.03448C59.5881 6.02359 59.7004 5.95826 59.7004 5.76226C59.7004 5.51182 59.5319 5.44649 59.2511 5.44649H58.8467V6.49181H59.1163V6.04537H59.1612L59.4084 6.49181H59.7229L59.4421 6.03448ZM59.2623 5.87115H59.1051V5.6316H59.2399C59.3185 5.6316 59.4084 5.64249 59.4084 5.74049C59.4084 5.84937 59.3634 5.87115 59.2623 5.87115ZM40.7988 12.9706L41.1018 22.9774L47.8698 5.43561L40.7988 12.9706Z" fill="#C9CCCE"/>
</g>
<path d="M133 2.93756V44.0626H133.256L149.54 2.93756H133Z" fill="#C9CCCE"/>
<path d="M179 2.93756H162.21L179 44.0626V2.93756Z" fill="#C9CCCE"/>
<path d="M160.221 44.0625H167.178L155.977 17.5164L148.577 36.0461H156.845L160.221 44.0625Z" fill="#C9CCCE"/>
<path d="M181.859 111.719C180.708 112.036 170.186 120.37 169.492 122.414C169.339 123.121 169.507 129.97 169.66 130.997C170.354 131.154 175.359 131.017 176.278 131.174L176.168 133.291C175.268 133.22 168.908 133.236 165.279 133.236C163.434 133.236 157.505 133.445 155.684 133.391L156.028 131.375C157.028 131.3 161.162 131.563 162.068 130.577C162.519 130.086 162.377 123.577 162.224 122.477C161.842 121.3 152.62 109.5 150.211 107.566H144V104.6H164.946V104.804C164.964 104.804 164.999 104.808 165.017 104.811L164.946 105.313V107.566H158.63C161.445 111.77 165.481 116.846 167.203 119.285L175.639 111.477H170.624L169.918 108.514H188.287L188.151 108.725C188.166 108.725 188.196 108.728 188.216 108.728L186.904 110.672C186.892 110.672 186.872 110.675 186.862 110.679L186.333 111.477H182.944C182.506 111.576 182.12 111.664 181.859 111.719ZM187.852 130.298L186.231 130.216L184.421 129.991L184.437 133.158L185.864 133.284L187.402 133.4L187.852 130.298ZM191 115.156C190.453 115.136 185.477 114.655 184.83 114.524L184.907 127.907L187.723 128.139L191 115.156Z" fill="#C9CCCE"/>
<path fill-rule="evenodd" clip-rule="evenodd" d="M260.859 0H239V22.3341H260.859V0ZM285 0H263.141V22.3341H285V0ZM239 24.6659H260.859V47H239V24.6659ZM285 24.6659H263.141V47H285V24.6659Z" fill="#C9CCCE"/>
<g clip-path="url(#clip3)">
<path d="M386.174 109.942C385.912 110.465 385.912 110.97 385.912 111.492V118.022C385.912 118.022 389.427 113.477 390.231 112.398C390.843 111.597 391.595 110.465 391.595 109.942H403.068C402.281 110.465 401.406 111.405 400.689 112.276C400.06 113.042 396.492 117.378 396.492 117.378C396.492 117.378 401.791 125.405 402.473 126.433C402.858 126.99 403.278 127.512 403.767 127.983H390.563C390.563 127.46 390.056 126.398 389.497 125.562C388.937 124.726 385.912 120.146 385.912 120.146V126.433C385.912 126.955 385.912 127.46 386.174 127.983H375.174C375.436 127.46 375.436 126.955 375.436 126.433V111.492C375.436 110.97 375.436 110.465 375.174 109.942H386.174ZM426.904 109.942H405.673C405.936 110.465 405.936 110.97 405.936 111.492V126.433C405.936 126.955 405.936 127.46 405.673 127.983H426.904V122.985C426.38 123.246 425.873 123.246 425.348 123.246H416.411V120.878H424.998V117.064H416.411V114.679H425.348C425.873 114.679 426.38 114.679 426.904 114.922V109.942ZM456.32 126.433C456.495 127.007 456.792 127.53 457.177 127.983H445.669C445.722 127.46 445.53 126.955 445.32 126.433C445.32 126.433 445.145 126.015 444.9 125.405L444.795 125.144H438.167L438.062 125.423C438.062 125.423 437.87 125.928 437.695 126.45C437.52 126.973 437.327 127.478 437.397 128H428.321C428.688 127.547 428.968 127.025 429.143 126.45L434.582 111.509C434.774 110.987 434.967 110.482 434.897 109.96H450.234C450.094 110.482 450.374 110.987 450.566 111.509C451.021 112.641 455.935 125.423 456.32 126.433ZM443.343 121.331L441.735 117.151C441.595 116.768 441.472 116.368 441.385 115.967C441.315 116.368 441.21 116.768 441.07 117.151C441.018 117.326 440.335 119.154 439.548 121.331H443.343ZM369.7 111.492C369.7 110.97 369.7 110.465 369.962 109.942H358C358.262 110.465 358.262 110.97 358.262 111.492V126.433C358.262 126.955 358.262 127.46 358 127.983H369.962C369.7 127.46 369.7 126.955 369.7 126.433V111.492ZM452.647 111.37C452.612 112.676 453.644 113.773 454.973 113.808C456.285 113.843 457.387 112.815 457.422 111.492C457.422 111.457 457.422 111.405 457.422 111.37C457.439 110.082 456.425 109.019 455.131 109.002C455.096 109.002 455.078 109.002 455.043 109.002C453.767 108.95 452.7 109.942 452.665 111.213C452.63 111.266 452.63 111.318 452.647 111.37ZM456.932 111.37C456.967 112.415 456.127 113.303 455.078 113.32C454.029 113.355 453.137 112.519 453.119 111.475C453.119 111.44 453.119 111.405 453.119 111.353C453.085 110.343 453.871 109.489 454.886 109.455C454.938 109.455 454.973 109.455 455.026 109.455C456.058 109.437 456.914 110.256 456.932 111.283C456.932 111.318 456.932 111.353 456.932 111.37ZM456.197 112.798H455.725L455.166 111.788H454.554V112.798H454.134V109.942H455.201C455.708 109.96 456.093 110.36 456.093 110.865C456.093 111.213 455.9 111.527 455.585 111.701L456.197 112.798ZM455.131 111.37C455.41 111.388 455.655 111.179 455.655 110.9C455.655 110.621 455.463 110.378 455.183 110.378C455.166 110.378 455.148 110.378 455.131 110.378H454.554V111.388H455.131" fill="#C9CCCE"/>
</g>
<g clip-path="url(#clip4)">
<path d="M5 110.242H12.5398L18.8679 121.221C18.8679 121.221 18.8679 113.271 18.8679 112.651C18.8679 111.688 17.673 110.431 17.2522 110.242C17.7571 110.242 22.1666 110.242 22.4695 110.242C22.1498 110.328 21.1231 111.602 21.1231 112.651C21.1231 113.168 21.1231 124.698 21.1231 125.248C21.1231 126.023 22.2171 127.09 22.7388 127.503H15.4683L9.0392 116.472C9.0392 116.472 9.0392 124.698 9.0392 125.145C9.0392 126.006 9.86387 126.832 10.7222 127.537H5.1683C5.95931 127.193 6.71666 126.109 6.78398 125.248C6.8513 124.388 6.78398 113.288 6.78398 112.806C6.78398 111.756 5.79101 110.896 5 110.242Z" fill="#C9CCCE"/>
<path d="M73.9693 127.503H84C83.4446 127.365 82.8219 126.694 82.4853 125.799C82.1487 124.904 76.8304 110.242 76.8304 110.242H73.343C71.9101 110.554 69.9481 109.986 68.7105 110.871C68.7071 110.903 69.5318 112.827 69.5262 112.858C69.3601 113.89 66.3756 124.943 66.1939 125.489C65.9414 126.246 64.6455 127.09 64.1238 127.537H69.5262C68.9876 126.918 68.5501 126.315 68.651 125.627C68.752 124.939 69.055 123.562 69.055 123.562H74.6425C74.895 124.25 75.0835 124.869 75.1811 125.455C75.2989 126.16 74.592 126.952 73.9693 127.503ZM69.5599 121.359L71.4448 115.061L73.9357 121.359H69.5599ZM68.7105 110.871C68.9876 110.662 73.0659 110.452 73.343 110.242H68.0788C68.2247 110.38 68.4659 110.597 68.7105 110.871Z" fill="#C9CCCE"/>
<path d="M30.346 125.627C30.447 124.939 30.7499 123.562 30.7499 123.562H36.3375C36.5899 124.25 36.7784 124.869 36.876 125.455C36.9938 126.16 36.287 126.952 35.6643 127.503H44.4955C44.6795 127.377 44.8624 127.25 45.0453 127.125C44.7031 126.816 44.3878 126.351 44.1802 125.799C43.8436 124.904 38.5254 110.242 38.5254 110.242H29.7738C30.1945 110.638 31.4063 111.705 31.2211 112.858C31.0562 113.89 28.0706 124.943 27.8888 125.489C27.6364 126.246 26.3404 127.09 25.8187 127.537H31.2211C30.6826 126.918 30.245 126.315 30.346 125.627ZM33.1398 115.061L35.6306 121.359H31.2548L33.1398 115.061Z" fill="#C9CCCE"/>
<path d="M60.852 118.81C59.2049 119.932 57.467 121.103 55.6359 122.326C56.4572 122.734 57.1113 123.245 57.1741 123.906C57.2908 125.147 54.8516 125.747 52.6468 125.489C52.2059 125.438 51.7849 125.372 51.372 125.214C50.274 124.792 49.8436 124.397 49.4491 124.116C48.1241 124.627 48.9151 126.773 48.2542 127.218V129C48.6918 128.122 49.6489 127.336 50.3916 127.296C50.7114 127.279 51.8222 128.329 56.3999 128.071C58.6215 127.946 62.9131 125.524 62.8458 122.736C62.8054 121.088 61.9639 119.803 60.852 118.81ZM48.2531 123.114L48.2542 127.218C48.6593 126.942 49.0576 124.381 49.4491 124.116C48.8332 123.678 48.3967 123.268 48.2531 123.114ZM60.852 118.81C59.8738 118.079 58.4285 117.186 58.0145 116.987C55.8603 115.954 53.605 115.765 53.1338 114.371C52.8017 113.388 53.7397 112.478 56.0286 112.512C58.3174 112.547 60.438 113.941 61.0102 114.44V110C60.8419 110.172 60.1037 111.038 59.4282 110.895C58.1323 110.619 55.9276 110.26 53.4031 110.275C50.5083 110.292 48.0175 112.58 47.9333 115.472C47.8155 119.517 50.9796 120.618 52.7635 121.255C52.9475 121.32 55.4081 122.252 55.6359 122.326C57.3469 121.188 57.9354 121.185 58.7275 120.718C59.2593 120.405 60.0352 119.359 60.852 118.81Z" fill="#C9CCCE"/>
</g>
<g clip-path="url(#clip5)">
<path d="M373.25 24.3674C373.25 23.0127 372.183 21.8937 370.79 21.8937C369.426 21.8937 368.33 23.0127 368.33 24.3674C368.33 25.7221 369.397 26.8117 370.79 26.8117C372.183 26.8117 373.25 25.7221 373.25 24.3674V24.3674ZM377.519 24.3969C377.519 27.9013 374.525 30.699 370.82 30.699C367.085 30.699 364.12 27.9013 364.12 24.3969C364.12 20.8629 367.114 18.0358 370.82 18.0358C374.525 18.0063 377.519 20.8629 377.519 24.3969V24.3969ZM390.888 21.8348C390.888 19.4788 389.228 17.4174 386.768 17.4174H383.359V26.3405H386.768C389.228 26.3405 390.888 24.1907 390.888 21.8348V21.8348ZM395.483 21.8348C395.483 26.8706 391.896 30.3162 386.857 30.3162H379.565C379.209 30.3162 378.942 30.0512 378.942 29.7272V14.0012C378.942 13.6773 379.209 13.4122 379.565 13.4122H386.857C391.926 13.4417 395.483 16.7989 395.483 21.8348V21.8348ZM402.627 26.8117C403.991 26.8117 405.088 25.6926 405.088 24.338C405.088 22.9833 404.021 21.8642 402.627 21.8642C401.264 21.8642 400.167 22.9833 400.167 24.338C400.167 25.7221 401.264 26.8117 402.627 26.8117ZM401.975 18.0063C403.428 18.0063 404.584 18.5364 405.088 19.2727V18.9193C405.088 18.5953 405.355 18.3597 405.651 18.3597H408.734C409.06 18.3597 409.297 18.5953 409.297 18.9193V29.7567C409.297 30.0806 409.06 30.3162 408.734 30.3162H405.681C405.355 30.3162 405.117 30.0806 405.117 29.7567V29.4033C404.614 30.1395 403.428 30.6696 401.975 30.6696C398.892 30.6696 395.928 28.2253 395.928 24.3085C395.928 20.3917 398.892 18.0063 401.975 18.0063V18.0063ZM416.56 26.8117C417.924 26.8117 419.02 25.6926 419.02 24.338C419.02 22.9833 417.953 21.8642 416.56 21.8642C415.196 21.8642 414.1 22.9833 414.1 24.338C414.1 25.7221 415.196 26.8117 416.56 26.8117ZM415.819 18.0063C417.301 18.0063 418.457 18.5659 418.991 19.2138V14.0012C418.991 13.6773 419.258 13.4417 419.554 13.4417H422.667C422.993 13.4417 423.23 13.6773 423.23 14.0012V29.7861C423.23 30.1101 422.993 30.3457 422.667 30.3457H419.613C419.287 30.3457 419.05 30.1101 419.05 29.7861V29.4327C418.428 30.169 417.36 30.699 415.908 30.699C412.825 30.699 409.86 28.2547 409.86 24.338C409.86 20.4212 412.795 18.0063 415.819 18.0063ZM430.493 26.8117C431.856 26.8117 432.953 25.6926 432.953 24.338C432.953 22.9833 431.886 21.8642 430.493 21.8642C429.129 21.8642 428.032 22.9833 428.032 24.338C428.062 25.7221 429.129 26.8117 430.493 26.8117ZM429.781 18.0063C431.263 18.0063 432.419 18.5659 432.953 19.2138V14.0012C432.953 13.6773 433.22 13.4417 433.516 13.4417H436.599C436.925 13.4417 437.162 13.6773 437.162 14.0012V29.7861C437.162 30.1101 436.925 30.3457 436.599 30.3457H433.546C433.22 30.3457 432.983 30.1101 432.983 29.7861V29.4327C432.36 30.169 431.293 30.699 429.84 30.699C426.757 30.699 423.793 28.2547 423.793 24.338C423.793 20.4212 426.728 18.0063 429.781 18.0063ZM447.419 32.0537C446.648 34.5864 444.87 35.9999 442.083 35.9999C440.571 35.9999 439.089 35.4993 438.141 34.6747C437.992 34.5275 437.903 34.3508 437.903 34.1741C437.903 34.0268 437.963 33.8501 438.111 33.6734L439.267 31.9359C439.445 31.7003 439.712 31.6709 439.771 31.6709C440.038 31.6709 440.156 31.7298 440.394 31.9065C440.749 32.1421 441.253 32.4366 441.816 32.4366C442.291 32.4366 442.913 32.2304 443.15 31.5236L443.536 30.3162H441.639C441.253 30.3162 441.016 30.0512 440.897 29.7272L437.785 19.3316C437.726 19.0665 437.696 18.9193 437.696 18.8309C437.696 18.5953 437.874 18.3892 438.2 18.3892H441.876C442.202 18.3892 442.38 18.6837 442.469 18.9782L444.514 26.4583H444.662L446.293 18.9782C446.352 18.6837 446.559 18.3892 446.886 18.3892H450.621C450.976 18.3892 451.125 18.5953 451.125 18.8309C451.125 18.9193 451.095 19.0665 451.036 19.3316L447.419 32.0537V32.0537ZM359.733 27.9897C358.251 30.0217 355.82 30.699 353.656 30.699C348.676 30.699 345 27.0179 345 21.8937C345.03 16.9756 349.002 13.0588 354.19 13.0588C358.043 13.0588 361.126 14.6786 362.519 17.7707C362.697 18.1241 362.816 18.7131 361.778 18.8898L359.051 19.361C358.429 19.4788 358.073 19.0665 357.954 18.8898C357.154 17.8002 355.85 17.064 354.278 17.064C351.551 17.064 349.624 19.1254 349.624 21.8642C349.624 24.8975 351.818 26.6645 354.219 26.6645C355.82 26.6645 357.124 26.0755 357.984 24.9564H355.583C355.227 24.9564 354.96 24.6914 354.96 24.3674V22.0998C354.96 21.7759 355.227 21.5108 355.583 21.5108H362.905C363.261 21.5108 363.527 21.7759 363.527 22.0998V29.7272C363.527 30.0512 363.261 30.3162 362.905 30.3162H360.355C360 30.3162 359.733 30.0512 359.733 29.7272V27.9897V27.9897ZM451.658 12.9999C450.354 12.9999 449.287 14.0601 449.287 15.3559C449.287 16.6517 450.354 17.7118 451.658 17.7118C452.962 17.7118 454.03 16.6517 454.03 15.3559C454.03 14.0601 452.962 12.9999 451.658 12.9999ZM451.658 17.2407C450.621 17.2407 449.761 16.3866 449.761 15.3559C449.761 14.3252 450.621 13.4711 451.658 13.4711C452.696 13.4711 453.555 14.3252 453.555 15.3559C453.555 16.3866 452.696 17.2407 451.658 17.2407Z" fill="#C9CCCE"/>
<path d="M452.132 14.9142C452.132 14.7964 452.103 14.708 452.014 14.6786C451.955 14.6197 451.836 14.5608 451.747 14.5608H451.332V15.2381H451.747C451.866 15.2381 451.955 15.2087 452.014 15.1203C452.073 15.0614 452.132 15.0025 452.132 14.9142V14.9142ZM451.213 16.6517H450.769C450.739 16.6517 450.739 16.6517 450.71 16.6222C450.71 16.5928 450.68 16.5928 450.68 16.5634V14.119C450.68 14.0896 450.68 14.0896 450.71 14.0602C450.739 14.0602 450.739 14.0307 450.769 14.0307H451.747C452.073 14.0307 452.31 14.0896 452.488 14.2663C452.666 14.443 452.755 14.6491 452.755 14.8847C452.755 15.0614 452.725 15.2087 452.607 15.3265C452.488 15.4737 452.399 15.5621 452.251 15.6504L452.814 16.5045C452.844 16.5339 452.844 16.5634 452.814 16.6222C452.814 16.6517 452.785 16.6517 452.755 16.6517H452.31C452.281 16.6517 452.251 16.6517 452.192 16.6222C452.162 16.6222 452.162 16.5928 452.132 16.5634L451.658 15.7682H451.302V16.5339C451.302 16.5634 451.302 16.5634 451.273 16.5928C451.243 16.6222 451.243 16.6517 451.213 16.6517V16.6517Z" fill="#C9CCCE"/>
</g>
<g clip-path="url(#clip6)">
<path d="M519 116.364H528.593V126.333H519V116.364Z" fill="#C9CCCE"/>
<path d="M540.997 131.952C540.997 134.983 541.428 136.948 542.281 137.855C543.009 138.627 544.242 139.1 545.973 139.282C546.487 139.328 547.363 139.348 548.601 139.348V142H526.397V139.348C528.179 139.348 529.499 139.257 530.347 139.082C532.067 138.705 533.153 137.668 533.6 135.964C533.828 135.08 533.949 133.744 533.949 131.953V97.2556C530.178 97.3677 527.232 98.6607 525.104 101.136C523.083 103.503 521.852 107.132 521.406 112.019L519 111.593L519.448 94.9999H555.552L556 111.593L553.599 112.019C553.15 107.132 551.911 103.503 549.882 101.136C547.742 98.6601 544.784 97.3677 540.998 97.2556V131.952H540.997Z" fill="#C9CCCE"/>
<path d="M546.407 116.364H556V126.333H546.407V116.364Z" fill="#C9CCCE"/>
</g>
<defs>
<clipPath id="clip0">
<rect width="47" height="47" fill="white" transform="translate(251 95.9999)"/>
</clipPath>
<clipPath id="clip1">
<rect width="57" height="47" fill="white" transform="translate(514 1.00006)"/>
</clipPath>
<clipPath id="clip2">
<rect width="73" height="37" fill="white" transform="translate(0 5.00006)"/>
</clipPath>
<clipPath id="clip3">
<rect width="101" height="19" fill="white" transform="translate(358 109)"/>
</clipPath>
<clipPath id="clip4">
<rect width="79" height="19" fill="white" transform="translate(5 110)"/>
</clipPath>
<clipPath id="clip5">
<rect width="109" height="23" fill="white" transform="translate(345 12.9999)"/>
</clipPath>
<clipPath id="clip6">
<rect width="37" height="47" fill="white" transform="translate(519 94.9999)"/>
</clipPath>
</defs>
</svg>
