<svg width="42" height="21" viewBox="0 0 42 21" fill="none" xmlns="http://www.w3.org/2000/svg" style="">
<path d="M6.79941 14.224C6.78552 13.2551 5.98764 6.0964 6.58919 6.73244C8.56141 8.81774 9.63806 10.9247 13.0662 14.4341C12.7429 14.6012 12.4657 6.23628 13.0656 6.42932" stroke="#12E700" stroke-width="1.75" stroke-linecap="round" stroke-linejoin="round" class="KxwTdoan_0"></path>
<path d="M15.8189 11.1339C17.2047 10.6975 21.1987 10.1192 21.1987 10.1192C21.1987 6.26676 18.5397 5.48032 16.3631 7.51567C13.3703 10.6815 16.5736 17.0829 21.1987 12.7863" stroke="#12E700" stroke-width="1.75" stroke-linecap="round" stroke-linejoin="round" class="KxwTdoan_1"></path>
<path d="M31.5001 6.5C31.5001 6.5 31.0001 12.7268 30.0001 14.2268C29.0001 12.2268 27.5001 8 27.5001 8C27.5001 8 26.2762 12.2428 25.3014 14.2268C23.8014 12.2268 23.507 8.24536 23.2633 6.42578" stroke="#12E700" stroke-width="1.75" stroke-linecap="round" stroke-linejoin="round" class="KxwTdoan_2"></path>
<path d="M35.5001 6C35.0001 7.5 35.0001 9.1636 35.0001 11" stroke="#12E700" stroke-width="1.75" stroke-linecap="round" stroke-linejoin="round" class="KxwTdoan_3"></path>
<path d="M34.8184 13.7268C34.3931 13.7268 34.2108 14.0499 34.393 14.4982C34.4628 14.6699 34.6373 14.8033 34.8185 14.7001C35.1055 14.5366 35.1106 14.1968 35.1441 13.9108" stroke="#12E700" stroke-width="1.75" stroke-linecap="round" stroke-linejoin="round" class="KxwTdoan_4"></path>
<path d="M4.77943 1.20503C8.52276 0.328686 29.0036 0.764705 37.51 0.897815C39.1667 0.923738 40.5039 2.27358 40.5163 3.93039C40.545 7.75955 40.59 13.1647 40.4558 16.6583C40.3993 18.1302 39.1972 19.2413 37.7249 19.2868C26.4478 19.6352 13.8652 19.9843 3.89839 19.577C2.28077 19.5109 1.03496 18.1469 1.02122 16.528C0.9836 12.0933 0.709222 7.58545 1.27943 4.7075" stroke="#12E700" stroke-linecap="round" stroke-linejoin="round" class="KxwTdoan_5"></path>
<style data-made-with="vivus-instant">
  .KxwTdoan_0{
  stroke-dasharray:26 28;stroke-dashoffset:27;animation:KxwTdoan_draw_0 15400ms ease-in-out 0ms infinite,KxwTdoan_fade 15400ms linear 0ms infinite;
  }
  .KxwTdoan_1{
  stroke-dasharray:26 28;stroke-dashoffset:27;animation:KxwTdoan_draw_1 15400ms ease-in-out 0ms infinite,KxwTdoan_fade 15400ms linear 0ms infinite;
  }
  .KxwTdoan_2{
  stroke-dasharray:30 32;stroke-dashoffset:-31;animation:KxwTdoan_draw_2 15400ms ease-in-out 0ms infinite,KxwTdoan_fade 15400ms linear 0ms infinite;
  }
  .KxwTdoan_3{
  stroke-dasharray:6 8;stroke-dashoffset:7;animation:KxwTdoan_draw_3 15400ms ease-in-out 0ms infinite,KxwTdoan_fade 15400ms linear 0ms infinite;
  }
  .KxwTdoan_4{
  stroke-dasharray:3 5;stroke-dashoffset:4;animation:KxwTdoan_draw_4 15400ms ease-in-out 0ms infinite,KxwTdoan_fade 15400ms linear 0ms infinite;
  }
  .KxwTdoan_5{
  stroke-dasharray:105 107;stroke-dashoffset:-106;animation:KxwTdoan_draw_5 15400ms ease-in-out 0ms infinite,KxwTdoan_fade 15400ms linear 0ms infinite;
  }

  @keyframes KxwTdoan_draw{
  100%{
  stroke-dashoffset:0;
  }
  }@keyframes KxwTdoan_fade{
  0%{
  stroke-opacity:1;
  }97.40259740259741%{
  stroke-opacity:1;
  }100%{
  stroke-opacity:0;
  }
  }@keyframes KxwTdoan_draw_0{
  6.493506493506493%{
  stroke-dashoffset: 27
  }11.701170117011703%{
  stroke-dashoffset: 0;
  }100%{
  stroke-dashoffset: 0;
  }
  }@keyframes KxwTdoan_draw_1{
  11.701170117011703%{
  stroke-dashoffset: 27
  }16.90883374051691%{
  stroke-dashoffset: 0;
  }100%{
  stroke-dashoffset: 0;
  }
  }@keyframes KxwTdoan_draw_2{
  16.90883374051691%{
    stroke-dashoffset: -31
  }22.88800308602289%{
  stroke-dashoffset: 0;
  }100%{
  stroke-dashoffset: 0;
  }
  }@keyframes KxwTdoan_draw_3{
  22.888003086022888%{
  stroke-dashoffset: 7
  }24.238138099524235%{
  stroke-dashoffset: 0;
  }100%{
  stroke-dashoffset: 0;
  }
  }@keyframes KxwTdoan_draw_4{
  24.23813809952424%{
  stroke-dashoffset: 4
  }25.009643821525007%{
  stroke-dashoffset: 0;
  }100%{
  stroke-dashoffset: 0;
  }
  }@keyframes KxwTdoan_draw_5{
  25.009643821525007%{
  stroke-dashoffset: -106
  }45.45454545454545%{
  stroke-dashoffset: 0;
  }100%{
  stroke-dashoffset: 0;
  }
  }</style></svg>
