<?xml version="1.0" encoding="UTF-8"?>
<svg xmlns="http://www.w3.org/2000/svg" xmlns:xlink="http://www.w3.org/1999/xlink" width="29px" height="29px" viewBox="0 0 29 29">
  <!-- Generator: Sketch 47.1 (45422) - http://www.bohemiancoding.com/sketch -->
  <title>twitter</title>
  <desc>Created with Sketch.</desc>
  <defs></defs>
  <g id="Symbols" stroke="none" stroke-width="1" fill="none" fill-rule="evenodd">
    <g id="Desktop-Footer" transform="translate(-506.000000, -379.000000)" fill="#000000">
      <g id="Stacked-Group" transform="translate(506.000000, 379.000000)">
        <g id="twitter">
          <path d="M10.8046255,21.3298827 C17.4074737,21.3298827 21.0183483,15.8019458 21.0183483,11.0085588 C21.0183483,10.8514786 21.0151989,10.6951056 21.0080602,10.5395813 C21.7089168,10.027603 22.3182296,9.38874405 22.7989051,8.66133741 C22.1556482,8.95003686 21.46347,9.14467207 20.7373478,9.23237107 C21.4784474,8.78340876 22.0475173,8.07276394 22.31585,7.22576131 C21.6221321,7.6412707 20.8541572,7.94354936 20.0364911,8.10621686 C19.3814064,7.40115931 18.4485405,6.9601182 17.4162221,6.9601182 C15.433611,6.9601182 13.8258539,8.58474223 13.8258539,10.5874621 C13.8258539,10.872201 13.8574183,11.1489479 13.9190075,11.414591 C10.9356424,11.2630273 8.2900379,9.81945932 6.51976938,7.62450887 C6.21119367,8.16046294 6.03356493,8.78340876 6.03356493,9.44772871 C6.03356493,10.7063508 6.66737341,11.8173699 7.63103385,12.4673327 C7.04222745,12.4490149 6.4889748,12.2854987 6.00521991,12.0134903 C6.00438006,12.0286255 6.00438006,12.0438314 6.00438006,12.0597445 C6.00438006,13.8168364 7.24197231,15.2835315 8.88437333,15.6161512 C8.58286638,15.6990409 8.2656122,15.7437391 7.93806983,15.7437391 C7.70683051,15.7437391 7.48189009,15.7206121 7.26324856,15.6783185 C7.72019816,17.1195526 9.04541499,18.1683337 10.6167785,18.1978967 C9.38793472,19.1708606 7.84022704,19.7507349 6.15828298,19.7507349 C5.86867394,19.7507349 5.58291422,19.733973 5.30198365,19.7004494 C6.89070411,20.729286 8.77701222,21.3298827 10.8046255,21.3298827 M24.5485972,28.2900009 L3.55229151,28.2900009 C1.61965156,28.2900009 0.052907229,26.706751 0.052907229,24.7537508 L0.052907229,3.53625011 C0.052907229,1.5832499 1.61965156,0 3.55229151,0 L24.5485972,0 C26.4812371,0 28.0479815,1.5832499 28.0479815,3.53625011 L28.0479815,24.7537508 C28.0479815,26.706751 26.4812371,28.2900009 24.5485972,28.2900009" id="Fill-1"></path>
        </g>
      </g>
    </g>
  </g>
</svg>
