<?xml version="1.0" encoding="UTF-8"?>
<svg xmlns="http://www.w3.org/2000/svg" xmlns:xlink="http://www.w3.org/1999/xlink" width="39px" height="28px" viewBox="0 0 39 28">
  <!-- Generator: Sketch 47.1 (45422) - http://www.bohemiancoding.com/sketch -->
  <title>Group 3</title>
  <desc>Created with Sketch.</desc>
  <defs></defs>
  <g id="Symbols" stroke="none" stroke-width="1" fill="none" fill-rule="evenodd">
    <g id="Desktop-Footer" transform="translate(-747.000000, -379.000000)" fill="#000000">
      <g id="Stacked-Group" transform="translate(506.000000, 379.000000)">
        <g id="Group-3" transform="translate(241.000000, 0.000000)">
          <path d="M15.3144784,19.5534895 L15.3144784,7.99770744 L25.260979,13.7759155 L15.3144784,19.5534895 Z M37.486026,4.50427588 C37.0457592,2.84728974 35.748595,1.54192963 34.1012975,1.09898864 C31.1155509,0.294275504 19.1429404,0.294275504 19.1429404,0.294275504 C19.1429404,0.294275504 7.17064508,0.294275504 4.18489852,1.09898864 C2.53760094,1.54192963 1.24043682,2.84728974 0.800169993,4.50427588 C0,7.50847483 0,13.7755985 0,13.7755985 C0,13.7755985 0,20.0430391 0.800169993,23.046921 C1.24043682,24.7039072 2.53760094,26.0095843 4.18489852,26.4522083 C7.17064508,27.2572385 19.1429404,27.2572385 19.1429404,27.2572385 C19.1429404,27.2572385 31.1155509,27.2572385 34.1012975,26.4522083 C35.748595,26.0095843 37.0457592,24.7039072 37.486026,23.046921 C38.286196,20.0430391 38.286196,13.7755985 38.286196,13.7755985 C38.286196,13.7755985 38.286196,7.50847483 37.486026,4.50427588 L37.486026,4.50427588 Z" id="Fill-1"></path>
        </g>
      </g>
    </g>
  </g>
</svg>
