<?xml version="1.0" encoding="UTF-8"?>
<svg xmlns="http://www.w3.org/2000/svg" xmlns:xlink="http://www.w3.org/1999/xlink" width="29px" height="28px" viewBox="0 0 29 28">
  <!-- Generator: Sketch 47.1 (45422) - http://www.bohemiancoding.com/sketch -->
  <title>Group 3</title>
  <desc>Created with Sketch.</desc>
  <defs></defs>
  <g id="Symbols" stroke="none" stroke-width="1" fill="none" fill-rule="evenodd">
    <g id="Desktop-Footer" transform="translate(-651.000000, -379.000000)" fill="#000000">
      <g id="Stacked-Group" transform="translate(506.000000, 379.000000)">
        <g id="Group-3" transform="translate(145.000000, 0.000000)">
          <path d="M24.3740435,23.8596944 L20.1343194,23.8596944 L20.1343194,17.3615556 C20.1343194,15.81125 20.1053183,13.8181944 17.9298377,13.8181944 C15.7219791,13.8181944 15.3838977,15.5063611 15.3838977,17.2493611 L15.3838977,23.8596944 L11.1443722,23.8596944 L11.1443722,10.4972778 L15.214261,10.4972778 L15.214261,12.3229167 L15.2706741,12.3229167 C15.8367917,11.2725278 17.2207009,10.1647778 19.2847458,10.1647778 C23.580883,10.1647778 24.3740435,12.9323056 24.3740435,16.5301111 L24.3740435,23.8596944 Z M6.36316161,8.67066667 C5.00328759,8.67066667 3.90263583,7.59130556 3.90263583,6.26208333 C3.90263583,4.93383333 5.00328759,3.85486111 6.36316161,3.85486111 C7.71946016,3.85486111 8.82170102,4.93383333 8.82170102,6.26208333 C8.82170102,7.59130556 7.71946016,8.67066667 6.36316161,8.67066667 Z M4.24091592,23.8596944 L8.48361957,23.8596944 L8.48361957,10.4972778 L4.24091592,10.4972778 L4.24091592,23.8596944 Z M26.4869532,0 L2.11132062,0 C0.946508869,0 0,0.903777778 0,2.01813889 L0,25.9795278 C0,27.0948611 0.946508869,28 2.11132062,28 L26.4869532,28 C27.6537513,28 28.604233,27.0948611 28.604233,25.9795278 L28.604233,2.01813889 C28.604233,0.903777778 27.6537513,0 26.4869532,0 L26.4869532,0 Z" id="Fill-1"></path>
        </g>
      </g>
    </g>
  </g>
</svg>
