<?xml version="1.0" encoding="UTF-8"?>
<svg xmlns="http://www.w3.org/2000/svg" xmlns:xlink="http://www.w3.org/1999/xlink" width="28px" height="28px" viewBox="0 0 28 28">
  <!-- Generator: Sketch 47.1 (45422) - http://www.bohemiancoding.com/sketch -->
  <title>Fill 4</title>
  <desc>Created with Sketch.</desc>
  <defs></defs>
  <g id="Page-1" stroke="none" stroke-width="1" fill="none" fill-rule="evenodd">
    <path d="M13.9998426,-0.0002 C6.26792467,-0.0002 -0.0001,6.26782467 -0.0001,13.9997426 C-0.0001,19.9307138 3.69004489,25.0010911 8.89790602,27.0409706 C8.77557064,25.9332959 8.66505564,24.2297814 8.94656475,23.0205431 C9.20087547,21.9280169 10.5881083,16.0616563 10.5881083,16.0616563 C10.5881083,16.0616563 10.1693448,15.2229818 10.1693448,13.9831023 C10.1693448,12.0364088 11.2976765,10.5830736 12.7025825,10.5830736 C13.8970166,10.5830736 14.4739209,11.479932 14.4739209,12.555244 C14.4739209,13.7563342 13.7091526,15.5522315 13.314489,17.2164977 C12.9846655,18.6100424 14.0132697,19.7464074 15.3876492,19.7464074 C17.8759006,19.7464074 19.7886247,17.1227379 19.7886247,13.3353903 C19.7886247,9.98344654 17.3800176,7.6396795 13.9407406,7.6396795 C9.95738099,7.6396795 7.61912249,10.6274861 7.61912249,13.7153645 C7.61912249,14.9185204 8.08264279,16.2088948 8.661039,16.9102002 C8.77545587,17.0488317 8.792211,17.1703638 8.7582417,17.3117495 C8.65185811,17.754039 8.41567966,18.7049499 8.36931615,18.8994701 C8.30826322,19.1557317 8.16641843,19.2100137 7.90109065,19.0867603 C6.15258971,18.2727594 5.05937497,15.7164547 5.05937497,13.6630334 C5.05937497,9.24679469 8.26809682,5.19113553 14.3096977,5.19113553 C19.166275,5.19113553 22.940425,8.65175811 22.940425,13.2767474 C22.940425,18.1017653 19.8982216,21.9848237 15.6756997,21.9848237 C14.2571371,21.9848237 12.923383,21.2478275 12.4668631,20.3772494 C12.4668631,20.3772494 11.7648692,23.0502662 11.5946784,23.7052081 C11.2786262,24.9213321 10.425377,26.4455897 9.85466976,27.3753846 C11.1645536,27.7809505 12.5566064,27.9998 13.9998426,27.9998 C21.7318753,27.9998 27.9999,21.7317753 27.9999,13.9997426 C27.9999,6.26782467 21.7318753,-0.0002 13.9998426,-0.0002" id="Fill-4" fill="#000000"></path>
  </g>
</svg>
